<svg width="857" height="130" viewBox="0 0 857 130" fill="none" xmlns="http://www.w3.org/2000/svg">
<path d="M854.238 92.52V39.0161C854.238 37.1761 853.601 35.5604 852.326 34.1704L852.062 33.896C850.702 32.5361 849.117 31.8131 847.307 31.728L846.942 31.7202V29.7202C849.461 29.7202 851.669 30.6751 853.476 32.4819L853.805 32.8247C855.399 34.5653 856.238 36.6543 856.238 39.0161V92.52C856.238 104.411 852.925 113.761 846.002 120.222L846.001 120.221C839.193 126.656 829.456 129.72 817.118 129.72C812.237 129.72 807.783 129.415 803.763 128.796L802.965 128.668C800.564 128.268 798.536 127.102 796.928 125.252L796.612 124.874C794.97 122.822 794.125 120.463 794.125 117.864V115.304C794.125 112.917 795.193 110.955 797.149 109.574L797.511 109.331C799.337 108.173 801.376 107.84 803.505 108.368H803.506C807.981 109.445 812.218 109.976 816.222 109.976V111.976L815.435 111.969C811.753 111.909 807.908 111.423 803.899 110.513L803.038 110.312C801.331 109.885 799.753 110.184 798.302 111.208L798.039 111.404C796.764 112.404 796.125 113.704 796.125 115.304V117.864L796.134 118.261C796.214 120.236 796.894 122.024 798.174 123.624C799.54 125.33 801.246 126.354 803.293 126.696C807.133 127.336 811.424 127.675 816.164 127.715L817.118 127.72C829.15 127.72 838.324 124.734 844.638 118.76C850.838 112.974 854.035 104.584 854.229 93.5913L854.238 92.52ZM787.342 63.7202C787.342 52.8758 789.701 44.18 794.688 37.8999L795.163 37.3179C800.128 31.3942 806.786 28.4399 814.942 28.4399C821.929 28.4399 828.047 30.9826 833.248 35.9233C833.682 34.7589 834.35 33.7018 835.251 32.77L835.587 32.439C837.405 30.6423 839.647 29.7203 842.206 29.7202V31.7202L841.826 31.728C839.941 31.813 838.318 32.5359 836.958 33.896C835.507 35.2613 834.739 36.9683 834.654 39.0161V40.0396L834.646 40.0962C834.63 40.144 834.59 40.1675 834.526 40.1675L834.27 39.9116C829.062 33.7944 822.853 30.64 815.643 30.4487L814.942 30.4399C807.091 30.4399 800.861 33.3414 796.253 39.144L795.829 39.6948C791.504 45.4608 789.342 53.4696 789.342 63.7202L789.349 64.6812C789.494 74.5522 791.881 82.3808 796.51 88.1675C801.222 93.8714 807.135 96.8124 814.25 96.9907L814.942 96.9995C822.217 96.9995 828.25 94.5575 833.042 89.6724L833.501 89.1919C833.587 89.1066 833.673 89.064 833.758 89.064C833.843 89.0641 833.886 89.1067 833.886 89.1919V92.7759L833.881 93.4175C833.796 99.9923 832.39 104.685 829.662 107.496C826.846 110.482 822.366 111.976 816.222 111.976V109.976C822.088 109.976 825.922 108.547 828.207 106.124L828.216 106.113L828.227 106.103C830.426 103.838 831.796 99.7759 831.88 93.4019C827.155 97.1362 821.481 98.9995 814.942 98.9995C807.153 98.9995 800.619 95.9726 795.462 90.0259L794.958 89.4292L794.948 89.4175C789.8 82.9831 787.342 74.3412 787.342 63.7202ZM831.886 70.3755V57.9595C831.886 55.0721 830.9 52.7388 828.914 50.8237L828.901 50.811L828.887 50.7983C826.867 48.7777 824.514 47.7994 821.726 47.7993C818.24 47.7993 815.865 49.0392 814.261 51.4028C812.563 53.9052 811.566 57.9105 811.566 63.7202C811.566 69.4962 812.605 73.4763 814.375 75.9722C816.212 78.4419 818.599 79.6401 821.726 79.6401V81.6401L821.376 81.6353C817.785 81.5449 814.916 80.0531 812.766 77.1597C810.766 74.3598 809.704 70.2475 809.579 64.8228L809.566 63.7202C809.566 51.7735 813.619 45.7993 821.726 45.7993L822.344 45.814C825.409 45.9539 828.062 47.1433 830.302 49.3833C832.692 51.6872 833.886 54.5463 833.886 57.9595V70.3755L833.872 70.9321C833.731 73.692 832.542 76.1521 830.302 78.312L829.848 78.7144C827.553 80.6644 824.846 81.6401 821.726 81.6401V79.6401C824.556 79.6401 826.922 78.7156 828.931 76.854C830.965 74.8855 831.886 72.7489 831.886 70.3755ZM846.942 29.7202V31.7202H842.206V29.7202H846.942Z" fill="#0F9ECF"/>
<path d="M712.682 90.9839V39.0161C712.682 36.5355 713.565 34.3404 715.274 32.5249L715.294 32.5034L715.316 32.4819C717.123 30.6751 719.331 29.7202 721.85 29.7202V31.7202L721.485 31.728C719.675 31.813 718.09 32.536 716.73 33.896L716.482 34.1704C715.282 35.5605 714.682 37.176 714.682 39.0161V90.9839L714.69 91.3491C714.77 93.159 715.45 94.7441 716.73 96.104C718.09 97.4639 719.675 98.186 721.485 98.271L721.85 98.2798H728.122L728.487 98.271C730.292 98.1859 731.834 97.4638 733.114 96.104C734.474 94.7441 735.197 93.159 735.282 91.3491L735.29 90.9839V58.2153C735.29 55.5755 736.377 53.1228 738.552 50.8579L739.001 50.4077C741.561 47.9331 744.335 46.6958 747.322 46.6958L747.981 46.7075C751.211 46.8225 753.466 47.8002 754.746 49.6401C756.111 51.5175 756.793 55.0163 756.793 60.1362V90.9839L756.802 91.3491C756.887 93.159 757.61 94.7441 758.97 96.104C760.33 97.4639 761.915 98.186 763.725 98.271L764.09 98.2798H769.722L770.086 98.271C771.891 98.186 773.434 97.464 774.714 96.104C776.074 94.7441 776.796 93.1589 776.881 91.3491L776.89 90.9839V59.4956C776.89 48.9146 775.183 41.4482 771.77 37.0962C768.463 32.7975 763.114 30.5801 755.723 30.4458L755.001 30.4399C747.236 30.4401 740.58 33.5971 735.034 39.9116L734.778 40.1675L734.722 40.1597C734.69 40.1491 734.668 40.1281 734.658 40.0962L734.65 40.0396L734.522 39.0161C734.437 36.9683 733.669 35.2613 732.218 33.896C730.938 32.536 729.358 31.8131 727.478 31.728L727.098 31.7202V29.7202C729.656 29.7203 731.876 30.6434 733.624 32.4731C734.717 33.512 735.501 34.7186 735.978 36.0659C741.377 31.0225 747.738 28.44 755.001 28.4399C763.132 28.4399 769.43 30.7746 773.355 35.8765H773.354C777.194 40.7835 778.89 48.8283 778.89 59.4956V90.9839C778.89 93.5031 777.935 95.7113 776.128 97.5181L776.127 97.5171C774.397 99.3338 772.225 100.28 769.722 100.28H764.09C761.729 100.28 759.639 99.4408 757.899 97.8472L757.556 97.5181C755.749 95.7113 754.793 93.5031 754.793 90.9839V60.1362C754.793 57.6545 754.627 55.6368 754.319 54.0552C754.006 52.4538 753.572 51.4262 753.128 50.8159L753.116 50.7993L753.104 50.7817C752.273 49.5874 750.594 48.6958 747.322 48.6958C744.951 48.6958 742.656 49.6582 740.392 51.8462H740.391C738.214 53.9479 737.29 56.0585 737.29 58.2153V90.9839C737.29 93.5031 736.335 95.7113 734.528 97.5181L734.527 97.5171C732.797 99.3337 730.625 100.28 728.122 100.28H721.85C719.331 100.28 717.123 99.3248 715.316 97.5181L715.294 97.4966L715.274 97.4741C713.565 95.6587 712.682 93.4644 712.682 90.9839ZM727.098 29.7202V31.7202H721.85V29.7202H727.098Z" fill="#0F9ECF"/>
<path d="M671.917 55.7837V53.7837H675.671C675.615 51.0654 674.867 49.493 673.822 48.604L673.802 48.5874L673.784 48.5698C672.728 47.625 670.586 46.9039 666.797 46.9038C661.786 46.9038 655.711 47.6859 648.545 49.2876L648.514 49.2944L648.483 49.3003C646.131 49.7482 643.932 49.2275 642.03 47.7729L642.006 47.7544L641.984 47.7358C640.141 46.2386 639.197 44.2128 639.197 41.8315V41.5757C639.197 39.0096 639.977 36.6686 641.517 34.6157L641.521 34.6099L641.526 34.604C643.16 32.4586 645.286 31.0936 647.858 30.6519L649.269 30.3853C656.27 29.0953 662.417 28.4399 667.693 28.4399C678.988 28.4399 687.499 30.4418 692.672 34.9351L693.163 35.3696C698.145 39.9462 700.413 47.1365 700.413 56.4233V90.9839C700.413 93.3456 699.574 95.4338 697.98 97.1743L697.651 97.5181C695.844 99.3248 693.636 100.28 691.117 100.28H686.381C683.84 100.28 681.595 99.4132 679.762 97.688L679.74 97.6675L679.718 97.646C678.587 96.5143 677.78 95.2179 677.31 93.7798C671.967 98.9487 665.359 101.56 657.581 101.56C651.225 101.56 645.842 99.5147 641.59 95.3579L641.575 95.3423L641.559 95.3257C637.391 91.063 635.357 85.5881 635.357 79.0796C635.357 70.7411 638.496 64.2527 644.879 59.9497C651.123 55.7414 660.235 53.7837 671.917 53.7837V55.7837L670.845 55.7896C648.52 56.0284 637.357 63.7917 637.357 79.0796L637.363 79.645C637.477 85.447 639.352 90.2083 642.989 93.9282C646.709 97.5654 651.39 99.4405 657.032 99.5542L657.581 99.5601C665.847 99.5601 672.632 96.4364 677.936 90.1899L678.445 89.5757C678.445 89.4905 678.53 89.4478 678.701 89.4478C678.786 89.4478 678.829 89.4904 678.829 89.5757V90.9839C678.914 93.0318 679.683 94.7813 681.133 96.2319C682.493 97.5118 684.116 98.192 686 98.272L686.381 98.2798H691.117L691.482 98.271C693.171 98.1917 694.664 97.5574 695.961 96.3677L696.237 96.104C697.597 94.7441 698.32 93.159 698.405 91.3491L698.413 90.9839V56.4233C698.413 47.4129 696.211 40.8848 691.806 36.8394L691.373 36.4556C686.908 32.5704 679.361 30.5672 668.731 30.4458L667.693 30.4399C662.232 30.4399 655.746 31.1651 648.237 32.6157C646.189 32.9571 644.482 34.0239 643.117 35.8159C641.837 37.5225 641.197 39.4425 641.197 41.5757V41.8315L641.205 42.1636C641.285 43.8037 641.965 45.144 643.245 46.1841C644.605 47.2241 646.115 47.6261 647.775 47.3911L648.109 47.3354C655.362 45.7141 661.592 44.9038 666.797 44.9038L667.519 44.9126C671.064 44.9976 673.597 45.7197 675.117 47.0796C676.823 48.5302 677.677 50.877 677.677 54.1196V54.7603L677.672 54.8833C677.631 55.4436 677.295 55.7424 676.665 55.7798L676.525 55.7837H671.917ZM677.677 70.5034L677.673 70.9097C677.596 75.0738 676.316 78.4369 673.836 80.9995L673.594 81.2358C671.068 83.6382 667.821 84.8393 663.853 84.8394V82.8394C667.49 82.8393 670.281 81.7219 672.415 79.5923C674.539 77.3885 675.677 74.428 675.677 70.5034V69.8159H671.917C666.851 69.816 663.389 70.6059 661.252 71.9194C659.275 73.135 658.301 74.8705 658.301 77.4155C658.301 79.2833 658.836 80.5644 659.741 81.4819C660.653 82.3254 661.95 82.8394 663.853 82.8394V84.8394L663.426 84.8325C661.321 84.7575 659.629 84.1194 658.349 82.9194C657.069 81.6394 656.389 79.9472 656.309 77.8423L656.301 77.4155C656.301 71.2156 661.186 68.0184 670.957 67.8247L671.917 67.8159H676.525C677.293 67.8159 677.677 68.2003 677.677 68.9683V70.5034Z" fill="#0F9ECF"/>
<path d="M559.917 71.7837V39.0161C559.917 36.497 560.872 34.2887 562.678 32.4819L563.022 32.1528C564.762 30.5592 566.851 29.7203 569.212 29.7202V31.7202L568.848 31.728C567.038 31.813 565.453 32.536 564.093 33.896L563.83 34.1704C562.554 35.5605 561.917 37.176 561.917 39.0161V71.7837L561.921 72.7271C562.022 82.3834 563.685 89.2369 566.909 93.2876C570.215 97.3383 575.444 99.4267 582.595 99.5532L583.292 99.5601C591.058 99.5601 597.715 96.4021 603.261 90.0874L603.517 89.8315C603.602 89.8316 603.645 89.8744 603.645 89.9595V90.9839C603.73 93.0318 604.455 94.7813 605.821 96.2319C607.181 97.5118 608.803 98.1919 610.688 98.272L611.069 98.2798H616.317L616.682 98.271C618.371 98.1916 619.864 97.5574 621.162 96.3677L621.437 96.104C622.797 94.7441 623.519 93.159 623.604 91.3491L623.613 90.9839V39.0161C623.613 37.1761 622.976 35.5604 621.701 34.1704L621.437 33.896C620.077 32.5361 618.492 31.8131 616.682 31.728L616.317 31.7202V29.7202C618.836 29.7202 621.044 30.6751 622.851 32.4819L623.18 32.8247C624.774 34.5653 625.613 36.6543 625.613 39.0161V90.9839C625.613 93.5031 624.658 95.7113 622.851 97.5181C621.044 99.3248 618.836 100.28 616.317 100.28H611.069C608.527 100.28 606.283 99.4132 604.45 97.688L604.406 97.647L604.365 97.6021C603.37 96.545 602.648 95.352 602.197 94.0425C596.823 99.0134 590.503 101.56 583.292 101.56C575.43 101.56 569.286 99.3613 565.36 94.5522L565.352 94.5425L565.344 94.5337C561.574 89.797 559.917 82.0391 559.917 71.7837ZM582.141 70.3755V39.0161C582.141 37.1759 581.503 35.5605 580.228 34.1704L579.965 33.896C578.605 32.5359 577.02 31.8129 575.209 31.728L574.845 31.7202V29.7202C577.364 29.7203 579.573 30.6752 581.379 32.4819L581.708 32.8247C583.301 34.5654 584.141 36.6541 584.141 39.0161V70.3755C584.141 75.249 584.793 78.099 585.687 79.4478C586.536 80.5286 588.106 81.3042 590.973 81.3042V83.3042L590.375 83.2935C587.543 83.1919 585.482 82.354 584.192 80.7808L584.061 80.6157C582.861 78.8557 582.223 75.7457 582.148 71.2856L582.141 70.3755ZM600.876 71.7837V39.0161C600.876 36.4968 601.832 34.2887 603.639 32.4819L603.982 32.1528C605.723 30.5591 607.811 29.7202 610.173 29.7202V31.7202L609.808 31.728C607.998 31.813 606.413 32.536 605.053 33.896L604.79 34.1704C603.514 35.5605 602.876 37.176 602.876 39.0161V71.7837L602.863 72.3101C602.718 74.93 601.484 77.4003 599.165 79.7202L598.698 80.1538C596.348 82.2537 593.773 83.3041 590.973 83.3042V81.3042C593.358 81.3041 595.605 80.3721 597.764 78.2915C599.95 76.1003 600.876 73.9424 600.876 71.7837ZM616.317 29.7202V31.7202H610.173V29.7202H616.317ZM574.845 29.7202V31.7202H569.212V29.7202H574.845Z" fill="#0F9ECF"/>
<path d="M495.124 41.4478L494.985 41.4429C494.354 41.401 494.018 41.0654 493.976 40.4351L493.972 40.2954V12.1362C493.972 10.1736 493.246 8.46678 491.795 7.01611C490.515 5.65617 488.973 4.93316 487.168 4.84814L486.804 4.83936V2.83936C489.328 2.83943 491.516 3.79969 493.252 5.64502H493.251C495.031 7.44391 495.972 9.63668 495.972 12.1362V39.4478H520.644V12.1362C520.644 9.65565 521.527 7.46049 523.236 5.64502L523.256 5.62256L523.278 5.60205C525.085 3.79524 527.293 2.83936 529.812 2.83936V4.83936L529.447 4.84814C527.637 4.93317 526.052 5.65614 524.692 7.01611L524.444 7.29053C523.244 8.68056 522.644 10.2962 522.644 12.1362V40.2954L522.639 40.4351C522.594 41.1102 522.212 41.4478 521.492 41.4478H495.124ZM537.108 2.83936V4.83936H529.812V2.83936H537.108ZM486.804 2.83936V4.83936H479.508V2.83936H486.804ZM522.644 90.9839L522.652 91.3491C522.732 93.159 523.412 94.7441 524.692 96.104C526.052 97.4639 527.637 98.186 529.447 98.271L529.812 98.2798H537.108L537.473 98.271C539.162 98.1916 540.655 97.5574 541.953 96.3677L542.228 96.104C543.588 94.7441 544.31 93.159 544.395 91.3491L544.404 90.9839V12.1362C544.404 10.2962 543.767 8.68052 542.492 7.29053L542.228 7.01611C540.868 5.65618 539.283 4.9332 537.473 4.84814L537.108 4.83936V2.83936C539.627 2.83936 541.835 3.79443 543.642 5.60107V5.60205L543.971 5.94482C545.565 7.6854 546.404 9.77443 546.404 12.1362V90.9839C546.404 93.5031 545.449 95.7113 543.642 97.5181C541.835 99.3248 539.627 100.28 537.108 100.28H529.812C527.293 100.28 525.085 99.3248 523.278 97.5181L523.256 97.4966L523.236 97.4741C521.527 95.6587 520.644 93.4644 520.644 90.9839V59.9595H495.972V90.9839C495.972 93.5031 495.017 95.7113 493.21 97.5181L493.209 97.5171C491.479 99.3338 489.307 100.28 486.804 100.28H479.508C477.147 100.28 475.057 99.4408 473.317 97.8472L472.974 97.5181C471.167 95.7113 470.211 93.5031 470.211 90.9839V12.1362C470.211 9.61696 471.167 7.40886 472.974 5.60205V5.60107L473.317 5.27295C475.058 3.67914 477.146 2.83936 479.508 2.83936V4.83936L479.143 4.84814C477.333 4.9331 475.748 5.65607 474.388 7.01611L474.125 7.29053C472.849 8.68057 472.211 10.2961 472.211 12.1362V90.9839L472.22 91.3491C472.305 93.159 473.028 94.7441 474.388 96.104C475.748 97.4639 477.333 98.186 479.143 98.271L479.508 98.2798H486.804L487.168 98.271C488.973 98.186 490.515 97.4638 491.795 96.104C493.155 94.7441 493.878 93.159 493.963 91.3491L493.972 90.9839V58.9839C493.972 58.3437 494.31 58.0032 494.985 57.9634L495.124 57.9595H521.492C522.26 57.9595 522.644 58.3012 522.644 58.9839V90.9839Z" fill="#0F9ECF"/>
<path d="M417.868 29.7202C420.255 29.7202 422.217 30.7865 423.598 32.7427L423.846 33.1147C425.025 34.9908 425.261 37.0773 424.481 39.1948L424.478 39.2017L394.27 120.353L394.268 120.358C393.355 122.792 391.812 124.753 389.665 126.184L389.664 126.183C387.558 127.672 385.21 128.44 382.667 128.44H375.627C373.206 128.44 371.208 127.41 369.884 125.396V125.397C369.876 125.385 369.868 125.372 369.86 125.36C369.858 125.357 369.855 125.353 369.853 125.35V125.349C368.613 123.517 368.407 121.469 369.143 119.42L369.304 119.007L377.809 98.6968C377.837 98.5531 377.852 98.4149 377.852 98.2798C377.852 98.1319 377.835 97.9801 377.801 97.8218L356.215 39.1948V39.1938C355.304 36.9575 355.57 34.7256 356.97 32.7427L357.24 32.3813C358.626 30.6298 360.545 29.7203 362.827 29.7202V31.7202L362.496 31.728C360.861 31.813 359.564 32.5359 358.604 33.896L358.422 34.1685C357.562 35.5385 357.452 36.9833 358.092 38.5034L379.724 97.2554C379.809 97.5967 379.852 97.9385 379.852 98.2798L379.844 98.5356C379.828 98.7917 379.788 99.0481 379.724 99.3042L371.148 119.784C370.465 121.405 370.593 122.899 371.532 124.264C372.412 125.624 373.667 126.346 375.297 126.431L375.627 126.44H382.667L383.066 126.432C385.046 126.357 386.876 125.72 388.556 124.52C390.236 123.4 391.465 121.905 392.245 120.035L392.396 119.656L422.604 38.5034C423.164 36.9834 423.011 35.5385 422.146 34.1685L421.964 33.896C421.004 32.536 419.744 31.8131 418.184 31.728L417.868 31.7202V29.7202ZM417.868 29.7202V31.7202H410.827V29.7202H417.868ZM370.892 29.7202V31.7202H362.827V29.7202H370.892ZM389.827 78.6235C389.812 78.6716 389.771 78.6958 389.707 78.6958L389.652 78.688C389.62 78.6773 389.598 78.6558 389.587 78.6235L389.579 78.5679L389.559 78.4868L379.852 38.7603C379.372 36.8401 378.366 35.2572 376.836 34.0122L376.524 33.7681C374.924 32.4881 373.174 31.808 371.274 31.728L370.892 31.7202V29.7202C373.405 29.7203 375.699 30.5645 377.723 32.1675H377.724C379.664 33.6228 380.993 35.5207 381.666 37.811L381.792 38.2749L381.794 38.2847L389.867 71.3169L399.564 38.0718C400.197 35.607 401.563 33.5764 403.612 32.0396L403.649 32.0122C405.783 30.488 408.195 29.7203 410.827 29.7202V31.7202L410.414 31.7271C408.359 31.802 406.492 32.4401 404.812 33.6401C403.105 34.92 401.996 36.5836 401.484 38.6313L389.835 78.5679L389.827 78.6235Z" fill="#0F9ECF"/>
<path d="M295.307 90.9839V39.0161C295.307 36.5355 296.19 34.3404 297.899 32.5249L297.919 32.5034L297.941 32.4819C299.748 30.6751 301.956 29.7202 304.475 29.7202V31.7202L304.11 31.728C302.3 31.813 300.715 32.536 299.355 33.896L299.107 34.1704C297.907 35.5605 297.307 37.176 297.307 39.0161V90.9839L297.315 91.3491C297.395 93.159 298.075 94.7441 299.355 96.104C300.715 97.4639 302.3 98.186 304.11 98.271L304.475 98.2798H311.387L311.751 98.271C313.556 98.186 315.099 97.4638 316.378 96.104C317.738 94.7441 318.461 93.159 318.546 91.3491L318.555 90.9839V70.1196C318.555 63.8051 320.432 58.6855 324.187 54.7603C328.027 50.7496 333.403 48.3593 340.315 47.5913C342.363 47.4206 344.07 46.6103 345.435 45.1597C346.795 43.7997 347.517 42.2147 347.602 40.4048L347.611 40.0396V39.0161C347.611 36.9682 346.886 35.2187 345.435 33.7681C344.07 32.3174 342.406 31.7201 340.443 31.9761L339.561 32.0962C330.512 33.4318 323.425 37.5308 318.299 44.3921L318.294 44.4214C318.276 44.4869 318.192 44.52 318.042 44.52L317.987 44.5122C317.955 44.5016 317.934 44.4797 317.923 44.4478L317.915 44.3921V39.0161C317.915 37.0535 317.189 35.3467 315.739 33.896C314.459 32.5361 312.917 31.8131 311.112 31.728L310.747 31.7202V29.7202C313.27 29.7202 315.458 30.6797 317.195 32.5249H317.194C318.974 34.3239 319.915 36.5164 319.915 39.0161V39.4722C325.207 34.1816 331.997 31.0256 340.19 29.9917C342.772 29.6566 345.054 30.4721 346.848 32.354H346.849C346.854 32.3584 346.857 32.3633 346.862 32.3677C346.871 32.3777 346.882 32.3869 346.891 32.397H346.89C348.687 34.2145 349.611 36.4566 349.611 39.0161V40.0396C349.611 42.539 348.669 44.7309 346.89 46.5298L346.891 46.5308C345.188 48.3403 343.035 49.3584 340.535 49.5786L340.536 49.5796C333.969 50.3092 329.072 52.5484 325.631 56.1411L325.632 56.1421C322.291 59.635 320.555 64.2302 320.555 70.1196V90.9839C320.555 93.5031 319.6 95.7113 317.793 97.5181L317.792 97.5171C316.062 99.3338 313.89 100.28 311.387 100.28H304.475C301.956 100.28 299.748 99.3248 297.941 97.5181L297.919 97.4966L297.899 97.4741C296.19 95.6587 295.307 93.4644 295.307 90.9839ZM310.747 29.7202V31.7202H304.475V29.7202H310.747Z" fill="#0F9ECF"/>
<path d="M230.682 90.9839V39.0161C230.682 36.5355 231.565 34.3404 233.274 32.5249L233.294 32.5034L233.316 32.4819C235.123 30.6751 237.331 29.7202 239.85 29.7202V31.7202L239.485 31.728C237.675 31.813 236.09 32.536 234.73 33.896L234.482 34.1704C233.282 35.5605 232.682 37.176 232.682 39.0161V90.9839L232.69 91.3491C232.77 93.159 233.45 94.7441 234.73 96.104C236.09 97.4639 237.675 98.186 239.485 98.271L239.85 98.2798H246.762L247.126 98.271C248.931 98.186 250.474 97.4638 251.753 96.104C253.113 94.7441 253.836 93.159 253.921 91.3491L253.93 90.9839V70.1196C253.93 63.8051 255.807 58.6855 259.562 54.7603C263.402 50.7496 268.778 48.3593 275.69 47.5913C277.738 47.4206 279.445 46.6103 280.81 45.1597C282.17 43.7997 282.892 42.2147 282.977 40.4048L282.986 40.0396V39.0161C282.986 36.9682 282.261 35.2187 280.81 33.7681C279.445 32.3174 277.781 31.7201 275.818 31.9761L274.936 32.0962C265.887 33.4318 258.8 37.5308 253.674 44.3921L253.669 44.4214C253.651 44.4869 253.567 44.52 253.417 44.52L253.362 44.5122C253.33 44.5016 253.309 44.4797 253.298 44.4478L253.29 44.3921V39.0161C253.29 37.0535 252.564 35.3467 251.114 33.896C249.834 32.5361 248.292 31.8131 246.487 31.728L246.122 31.7202V29.7202C248.645 29.7202 250.833 30.6797 252.57 32.5249H252.569C254.349 34.3239 255.29 36.5164 255.29 39.0161V39.4722C260.582 34.1816 267.372 31.0256 275.565 29.9917C278.147 29.6566 280.429 30.4721 282.223 32.354H282.224C282.229 32.3584 282.232 32.3633 282.237 32.3677C282.246 32.3777 282.257 32.3869 282.266 32.397H282.265C284.062 34.2145 284.986 36.4566 284.986 39.0161V40.0396C284.986 42.539 284.044 44.7309 282.265 46.5298L282.266 46.5308C280.563 48.3403 278.41 49.3584 275.91 49.5786L275.911 49.5796C269.344 50.3092 264.447 52.5484 261.006 56.1411L261.007 56.1421C257.666 59.635 255.93 64.2302 255.93 70.1196V90.9839C255.93 93.5031 254.975 95.7113 253.168 97.5181L253.167 97.5171C251.437 99.3338 249.265 100.28 246.762 100.28H239.85C237.331 100.28 235.123 99.3248 233.316 97.5181L233.294 97.4966L233.274 97.4741C231.565 95.6587 230.682 93.4644 230.682 90.9839ZM246.122 29.7202V31.7202H239.85V29.7202H246.122Z" fill="#0F9ECF"/>
<path d="M219.568 63.7202C219.232 41.8802 209.221 30.789 189.537 30.4478L188.592 30.4399C178.011 30.4399 169.904 33.4266 164.272 39.3999C158.725 45.2879 155.952 53.821 155.952 64.9995L155.961 66.0483C156.15 76.7973 159.261 85.0241 165.295 90.728C171.413 96.432 180.013 99.373 191.095 99.5513L192.176 99.5601C197.467 99.56 202.587 99.0905 207.536 98.1519C209.584 97.8105 211.248 96.7863 212.528 95.0796C213.808 93.3995 214.488 91.5695 214.568 89.5894L214.576 89.1919V88.936C214.576 87.256 213.939 85.8754 212.664 84.7954L212.4 84.5835C211.035 83.4742 209.456 83.1334 207.664 83.5601C203.226 84.6693 199.087 85.2241 195.248 85.2241V83.2241C198.896 83.2241 202.871 82.6966 207.179 81.6196L207.201 81.6138C209.545 81.0557 211.75 81.5031 213.614 82.9956L213.615 82.9946C215.549 84.4739 216.576 86.5073 216.576 88.936V89.1919C216.576 91.7838 215.735 94.1624 214.126 96.2788L214.127 96.2798C212.557 98.3734 210.459 99.6798 207.908 100.116L207.909 100.117C202.831 101.08 197.586 101.56 192.176 101.56C180.242 101.56 170.729 98.5286 163.932 92.1909L163.922 92.1812C157.179 85.8068 153.952 76.6325 153.952 64.9995C153.952 53.5082 156.805 44.4098 162.816 38.0288L162.817 38.0278L163.397 37.4302C169.474 31.3549 177.971 28.4399 188.592 28.4399C199.105 28.44 207.375 31.3193 213.032 37.397C218.659 43.4428 221.393 52.3265 221.568 63.689V63.7202C221.568 66.3759 220.485 68.6552 218.469 70.4585L218.464 70.4624C216.564 72.1518 214.3 73.016 211.76 73.0161H178.737C179.464 76.6929 180.965 79.13 183.055 80.6206C185.568 82.2628 189.538 83.2241 195.248 83.2241V85.2241L194.161 85.2124C188.811 85.0974 184.736 84.1197 181.936 82.2798C179.125 80.2958 177.356 77.0705 176.627 72.604L176.56 72.1675C176.4 71.4475 176.69 71.0649 177.43 71.02L177.583 71.0161H211.76L212.141 71.0073C213.905 70.9326 215.473 70.3355 216.845 69.2153L217.136 68.9683C218.656 67.6082 219.463 65.9852 219.558 64.1001L219.568 63.7202ZM189.638 44.4048C196.375 44.671 199.909 49.0612 200.24 57.5757L200.236 57.7153C200.191 58.3902 199.808 58.7279 199.088 58.728H177.456L177.347 58.7241C176.892 58.6894 176.634 58.4291 176.574 57.9438L176.56 57.7036C177.056 52.9915 178.233 49.641 180.09 47.6519L180.272 47.4634C182.235 45.4155 185.136 44.3921 188.976 44.3921L189.638 44.4048ZM188.976 46.3921C185.482 46.3921 183.183 47.317 181.716 48.8472L181.701 48.8628L181.686 48.8784C180.343 50.222 179.253 52.7113 178.696 56.728H198.189C197.928 53.0692 197.003 50.574 195.647 48.9868C194.239 47.3387 192.127 46.3921 188.976 46.3921Z" fill="#0F9ECF"/>
<path d="M102.877 38.688C102.814 38.7358 102.75 38.7602 102.686 38.7603L102.63 38.7515C102.598 38.7409 102.577 38.72 102.566 38.688L102.558 38.6313V9.57568C102.558 7.73569 101.92 6.12095 100.645 4.73096L100.382 4.45557C99.0222 3.09546 97.4366 2.37348 95.6265 2.28857L95.2622 2.27979V0.279785C97.7814 0.279866 99.9897 1.23476 101.796 3.0415L102.125 3.38525C103.718 5.12583 104.558 7.21388 104.558 9.57568V34.6841C110.009 30.5688 115.878 28.4399 122.142 28.4399C130.354 28.44 136.698 30.8159 140.623 36.0044H140.624C144.472 41.0073 146.158 49.5847 146.158 61.1597V90.9839C146.158 93.3456 145.319 95.4338 143.725 97.1743L143.396 97.5181C141.589 99.3248 139.381 100.28 136.862 100.28H131.23C128.868 100.28 126.78 99.4406 125.04 97.8472L124.696 97.5181C122.889 95.7113 121.934 93.5031 121.934 90.9839V63.7202C121.934 60.3632 121.765 57.6335 121.444 55.5063C121.117 53.3402 120.655 51.9686 120.182 51.1997L120.167 51.1763L120.154 51.1509C119.374 49.7997 117.758 48.8237 114.461 48.8237C112.355 48.8239 110.248 49.6776 108.112 51.6655L107.684 52.0776C105.488 54.2736 104.558 56.4368 104.558 58.6001V90.9839C104.558 93.3457 103.718 95.4337 102.125 97.1743L101.796 97.5181C99.9897 99.3248 97.7814 100.28 95.2622 100.28H89.1177C86.7561 100.28 84.6677 99.4407 82.9272 97.8472L82.5835 97.5181C80.7767 95.7113 79.8218 93.5031 79.8218 90.9839V9.57568C79.8218 7.05647 80.7767 4.84828 82.5835 3.0415L82.9272 2.7124C84.6677 1.11892 86.7561 0.279835 89.1177 0.279785V2.27979L88.7524 2.28857C86.9426 2.37367 85.3574 3.09568 83.9976 4.45557L83.7349 4.73096C82.4598 6.12097 81.8218 7.73566 81.8218 9.57568V90.9839L81.8306 91.3491C81.9156 93.159 82.6377 94.7441 83.9976 96.104C85.3574 97.4639 86.9426 98.1859 88.7524 98.271L89.1177 98.2798H95.2622L95.6265 98.271C97.3159 98.1917 98.8095 97.5577 100.107 96.3677L100.382 96.104C101.742 94.7441 102.464 93.1589 102.549 91.3491L102.558 90.9839V58.6001C102.558 55.9599 103.646 53.4695 105.821 51.1294L106.27 50.6636C108.83 48.1038 111.56 46.8239 114.461 46.8237L115.136 46.8364C118.436 46.9665 120.686 48.0719 121.886 50.1519C123.251 52.3706 123.934 56.8938 123.934 63.7202V90.9839L123.943 91.3491C124.028 93.159 124.75 94.7441 126.11 96.104C127.47 97.4639 129.055 98.186 130.865 98.271L131.23 98.2798H136.862L137.227 98.271C138.916 98.1916 140.409 97.5574 141.707 96.3677L141.982 96.104C143.342 94.7441 144.064 93.159 144.149 91.3491L144.158 90.9839V61.1597C144.158 49.9996 142.556 42.163 139.353 37.6499L139.038 37.2241C135.731 32.8428 130.342 30.5837 122.872 30.4468L122.142 30.4399C115.316 30.4399 108.915 33.1701 102.942 38.6313L102.877 38.688ZM95.2622 0.279785V2.27979H89.1177V0.279785H95.2622Z" fill="#0F9ECF"/>
<path d="M66.2495 72.0396C66.2495 64.2746 63.9461 58.0027 59.3384 53.2241C54.8158 48.4455 46.666 44.2642 34.8901 40.6802C28.277 38.5309 24.8665 34.9799 24.6597 30.0278L24.6499 29.5435C24.65 23.3997 28.5757 20.3276 36.4263 20.3276L37.5845 20.3433C43.4094 20.4933 49.722 21.7675 56.522 24.1675C58.042 24.7275 59.4869 24.6128 60.8569 23.8228L61.1304 23.6558C62.4901 22.7758 63.2123 21.5582 63.2974 20.0034L63.3062 19.688V15.9761C63.3062 13.7574 62.6662 11.7515 61.3862 9.95947C60.1916 8.08218 58.5699 6.84489 56.522 6.24756C50.5221 4.5676 43.8847 3.67486 36.6099 3.56982L35.146 3.56006C24.7353 3.56006 16.7135 5.90677 11.0815 10.6001L10.5698 11.0366C5.3645 15.6039 2.76228 21.773 2.76221 29.5435L2.76904 30.229C2.91381 37.271 5.30095 43.272 9.93018 48.2319C14.7089 53.2665 22.4742 57.4905 33.2261 60.9038C37.2366 62.1838 40.053 63.7202 41.6743 65.5122C43.2953 67.304 44.1059 69.6078 44.106 72.4233L44.0923 73.0229C43.9524 75.9781 42.7621 78.296 40.522 79.9761L40.3022 80.1333C38.0031 81.7348 34.6629 82.5356 30.2817 82.5356V80.5356C34.5988 80.5356 37.5094 79.7126 39.3218 78.3745C41.1592 76.9962 42.106 75.0987 42.106 72.4233C42.1059 70.0164 41.4251 68.2183 40.1909 66.854C38.9233 65.4529 36.5106 64.0518 32.6206 62.8101L31.6079 62.4829C21.2213 59.078 13.4327 54.828 8.479 49.6089L8.47314 49.603L8.46826 49.5962C3.32614 44.0868 0.762207 37.362 0.762207 29.5435C0.762283 21.0042 3.74381 14.0965 9.80127 9.06299L10.3823 8.59326C16.4541 3.81843 24.7948 1.56006 35.146 1.56006C42.6469 1.56007 49.541 2.36191 55.8149 3.98584L57.061 4.32178L57.0718 4.32471L57.0815 4.32764C59.5935 5.06029 61.5916 6.5904 63.0317 8.82373C64.5436 10.9512 65.3062 13.3547 65.3062 15.9761V19.688C65.3061 21.9335 64.3585 23.788 62.5825 25.0835L62.2163 25.3345C60.2446 26.6103 58.0595 26.8562 55.856 26.0522V26.0542C48.765 23.5515 42.2945 22.3277 36.4263 22.3276C32.7073 22.3276 30.286 23.0646 28.8267 24.2065C27.4607 25.2756 26.65 26.9285 26.6499 29.5435C26.6499 31.6625 27.3268 33.4045 28.6821 34.8784C30.0751 36.3932 32.2822 37.7266 35.4878 38.771C47.3338 42.3778 55.8869 46.6772 60.7769 51.8354H60.7778C65.8057 57.0496 68.2495 63.8508 68.2495 72.0396C68.2495 81.6601 65.1951 89.1895 58.8208 94.2466C52.5349 99.2335 43.3354 101.56 31.562 101.56C24.013 101.56 17.1084 100.375 10.8745 97.9702V97.9692C8.42077 97.045 6.46242 95.4408 5.04248 93.2095L5.01416 93.1655L4.98877 93.1196C3.70597 90.85 3.06593 88.3767 3.06592 85.7358V81.6401C3.06592 79.3948 4.1254 77.6048 6.0542 76.4878L6.41553 76.2749C8.23019 75.2753 10.1946 75.189 12.0933 76.1343H12.0942C18.0683 79.0804 24.1247 80.5356 30.2817 80.5356V82.5356L29.6743 82.5317C23.6019 82.4417 17.6419 81.0014 11.7944 78.2114L11.2095 77.9282C9.84419 77.2456 8.47905 77.3308 7.11377 78.1841C5.74858 78.9521 5.06592 80.1042 5.06592 81.6401V85.7358L5.07275 86.1655C5.13772 88.3056 5.68994 90.2962 6.72998 92.1362C7.92463 94.0134 9.54637 95.3361 11.5942 96.104C17.1941 98.2639 23.394 99.4114 30.1938 99.5464L31.562 99.5601C54.3259 99.56 65.886 90.6709 66.2417 72.8931L66.2495 72.0396Z" fill="#0F9ECF"/>
</svg>
